# xmcd
#
# Track frame offsets:
#	150
#	15735
#	29510
#	46786
#	64989
#	85448
#	100105
#	116190
#	133046
#	151305
#	169578
#	187065
#	208809
#	227222
#	242843
#	257071
#	270443
#	286325
#
# Disc length: 4088 seconds
#
# Revision: 1
# Processed by: cddbd v1.5.1PL0 Copyright (c) Steve Scherf et al.
# Submitted via: audiograbber 1.83.01
#
DISCID=050ff612
DTITLE=Various Artist - RC59
DYEAR=2000
DGENRE=Country
TTITLE0=Chad Brock - Yes
TTITLE1=Faith Hill - The Way You Love Me
TTITLE2=Dixie Chicks - Goodbye Earl
TTITLE3=Clay Davidson - Unconditional
TTITLE4=Reba McEntire - I'll Be
TTITLE5=Brad Paisley - Me Neither
TTITLE6=Jennifer Day - The Fun Of Your Love
TTITLE7=Collin Raye - Couldn't Last A Moment
TTITLE8=Clay Walker - The Chain Of Love
TTITLE9=Keith Urban - Your Everything
TTITLE10=Chalee Tennison - Just Because She Lives There
TTITLE11=Ty Herndon - No Mercy
TTITLE12=Vince Gill - Let's Make Sure We Kiss Goodbye
TTITLE13=Wilkinsons - Jimmy's Got A Girlfriend
TTITLE14=Yankee Grey - Another Nine Minutes
TTITLE15=Trace Adkins - More
TTITLE16=Kenny Chesney - What I Need To Do
TTITLE17=Alan Jackson - The Blues Man
EXTD=
EXTT0=
EXTT1=
EXTT2=
EXTT3=
EXTT4=
EXTT5=
EXTT6=
EXTT7=
EXTT8=
EXTT9=
EXTT10=
EXTT11=
EXTT12=
EXTT13=
EXTT14=
EXTT15=
EXTT16=
EXTT17=
PLAYORDER=
